<?xml version="1.0" encoding="utf-8"?>
<!-- Generator: Adobe Illustrator 16.0.0, SVG Export Plug-In . SVG Version: 6.00 Build 0)  -->
<!DOCTYPE svg PUBLIC "-//W3C//DTD SVG 1.1//EN" "http://www.w3.org/Graphics/SVG/1.1/DTD/svg11.dtd">
<svg version="1.1" id="Layer_1" xmlns="http://www.w3.org/2000/svg" xmlns:xlink="http://www.w3.org/1999/xlink" x="0px" y="0px"
	 width="353.075px" height="119.875px" viewBox="0 0 353.075 119.875" enable-background="new 0 0 353.075 119.875"
	 xml:space="preserve">
<path fill="#225B34" d="M73.227,46.564V21.69H46.388v24.874H21.517v26.84h24.871v24.872h26.839V73.404H98.1v-26.84H73.227z
	 M68.88,74.954c-2.662,1.633-5.783,2.59-9.135,2.59c-3.3,0-6.376-0.929-9.012-2.516c1.6-1.027,3.65-1.803,5.998-2.166
	c0,0-0.016-12.495-0.016-16.814c-3.08,0.363-5.906,1.15-8.305,2.259c1.402-2.791,3.284-5.073,5.479-6.595
	c-1.085-0.266-2.288-0.454-3.564-0.572c0.795-2.366,3.978-4.124,7.779-4.136c-0.004-0.055,0.002-0.114,0.002-0.17
	c0-2.023,2.015-3.659,4.5-3.659c0.358,0,0.699,0.046,1.041,0.11c-0.717,0.869-1.141,2.045-1.141,3.343
	c0,0.137,0.001,0.278,0.011,0.413c3.389,0.264,6.134,1.926,6.864,4.099c-1.276,0.118-2.479,0.306-3.564,0.572
	c2.195,1.522,4.077,3.804,5.48,6.595c-2.401-1.109-5.225-1.942-8.304-2.306v16.858C65.284,73.213,67.294,73.962,68.88,74.954z"/>
<path fill="#225B34" d="M59.939,0C26.888,0,0,26.885,0,59.935c0,33.052,26.888,59.94,59.939,59.94
	c33.05,0,59.938-26.888,59.938-59.94C119.877,26.885,92.989,0,59.939,0 M59.939,112.166c-28.8,0-52.23-23.431-52.23-52.231
	c0-28.797,23.43-52.226,52.23-52.226c28.799,0,52.229,23.429,52.229,52.226C112.168,88.735,88.738,112.166,59.939,112.166"/>
<path fill="#225B34" d="M61.382,61.816c-0.058-0.122-0.051-0.101-0.206-0.312c-0.629-0.855-0.45-0.337-1.025-1.305
	c-0.533-0.894-0.138-1.934-0.138-1.934l0.133-0.108l0.069-0.132l0.037-0.134l0.019-0.202l-0.017-0.17l-0.053-0.182l-0.077-0.176
	l-0.071-0.127l-0.075-0.136l-0.09-0.156l-0.118-0.183l-0.087-0.129l-0.088-0.133l-0.089-0.096l-0.237-0.078h-0.091l-0.254,0.105
	l-0.056,0.077l-0.056,0.13l-0.072,0.199l-0.073,0.182l-0.056,0.182l-0.035,0.146l-0.036,0.218l-0.037,0.2v0.348l0.018,0.147
	l0.071,0.14l0.168,0.119c0,0-0.142,2.057,0.559,2.924c0.703,0.866,0.959,0.785,1.196,1.358c0.238,0.575,0.32,1.196,0.137,1.926
	c-0.182,0.729-0.758,1.753-1.121,2.818c-0.365,1.067-0.713,2.5-0.42,3.284c0.292,0.784,0.73,1.516,1.122,1.88
	c0.392,0.363,0.83,0.41,1.011,0.438c-0.546-0.521-0.491-0.778-0.729-1.196c-0.237-0.419-0.493-1.542-0.311-2.665
	c0.184-1.12,1.124-3.118,1.124-3.118s1.017-2.096,0.436-3.339C61.498,62.052,61.427,61.909,61.382,61.816"/>
<polygon fill="#225B34" points="139.285,28.991 139.285,35.9 150.379,35.9 150.379,40.796 139.285,40.796 139.285,52.207 
	133.798,52.207 133.798,24.095 152.314,24.095 152.314,28.991 "/>
<path fill="#225B34" d="M166.166,52.206V50.43c-1.38,1.383-2.685,1.974-5.054,1.974c-2.329,0-4.027-0.591-5.251-1.816
	c-1.105-1.144-1.696-2.804-1.696-4.62c0-3.276,2.249-5.961,7.027-5.961h4.856v-1.026c0-2.251-1.105-3.238-3.829-3.238
	c-1.976,0-2.883,0.473-3.949,1.698l-3.276-3.198c2.013-2.212,3.987-2.843,7.422-2.843c5.763,0,8.765,2.447,8.765,7.265v13.541
	H166.166z M166.048,43.521h-4.067c-1.856,0-2.882,0.869-2.882,2.329c0,1.422,0.948,2.369,2.962,2.369
	c1.42,0,2.329-0.118,3.236-0.987c0.553-0.513,0.751-1.342,0.751-2.606V43.521z"/>
<path fill="#225B34" d="M187.333,37.243c-0.791-0.789-1.462-1.224-2.725-1.224c-1.58,0-3.317,1.184-3.317,3.791v12.396h-5.132
	v-20.57h5.015v1.975c0.986-1.184,2.962-2.211,5.172-2.211c2.013,0,3.435,0.514,4.856,1.934L187.333,37.243z"/>
<path fill="#225B34" d="M217.498,52.206V39.77c0-2.802-1.778-3.751-3.396-3.751c-1.58,0-3.435,0.949-3.435,3.634v12.554h-5.133
	V39.77c0-2.802-1.777-3.751-3.396-3.751s-3.435,0.949-3.435,3.751v12.437h-5.133v-20.57h5.015v1.895
	c1.342-1.382,3.237-2.131,5.133-2.131c2.289,0,4.145,0.829,5.448,2.605c1.736-1.816,3.593-2.605,6.16-2.605
	c2.053,0,3.908,0.671,5.053,1.816c1.658,1.658,2.25,3.593,2.25,5.842v13.148H217.498z"/>
<path fill="#225B34" d="M238.151,52.206V50.43c-1.381,1.383-2.685,1.974-5.054,1.974c-2.329,0-4.027-0.591-5.251-1.816
	c-1.105-1.144-1.697-2.804-1.697-4.62c0-3.276,2.25-5.961,7.028-5.961h4.855v-1.026c0-2.251-1.104-3.238-3.83-3.238
	c-1.975,0-2.882,0.473-3.948,1.698l-3.276-3.198c2.014-2.212,3.987-2.843,7.423-2.843c5.764,0,8.766,2.447,8.766,7.265v13.541
	H238.151z M238.033,43.521h-4.066c-1.856,0-2.883,0.869-2.883,2.329c0,1.422,0.948,2.369,2.963,2.369
	c1.42,0,2.329-0.118,3.235-0.987c0.554-0.513,0.751-1.342,0.751-2.606V43.521z M236.295,28.36h-3.435l2.527-6.712h5.409
	L236.295,28.36z"/>
<path fill="#225B34" d="M256.313,52.444c-4.105,0-9.199-2.211-9.199-10.543c0-8.329,5.094-10.501,9.199-10.501
	c2.844,0,4.977,0.869,6.791,2.763l-3.473,3.476c-1.066-1.145-1.977-1.62-3.318-1.62c-1.223,0-2.17,0.435-2.92,1.342
	c-0.79,0.989-1.145,2.369-1.145,4.54c0,2.173,0.354,3.594,1.145,4.581c0.75,0.908,1.698,1.342,2.92,1.342
	c1.342,0,2.252-0.474,3.318-1.618l3.473,3.434C261.29,51.535,259.157,52.444,256.313,52.444"/>
<path fill="#225B34" d="M266.462,23.938h5.252v4.185h-5.252V23.938z M266.542,31.636h5.133v20.57h-5.133V31.636z"/>
<path fill="#225B34" d="M287.39,52.206V50.43c-1.381,1.383-2.684,1.974-5.053,1.974c-2.33,0-4.027-0.591-5.252-1.816
	c-1.104-1.144-1.695-2.804-1.695-4.62c0-3.276,2.248-5.961,7.027-5.961h4.855v-1.026c0-2.251-1.105-3.238-3.828-3.238
	c-1.977,0-2.885,0.473-3.949,1.698l-3.277-3.198c2.014-2.212,3.988-2.843,7.422-2.843c5.764,0,8.766,2.447,8.766,7.265v13.541
	H287.39z M287.272,43.521h-4.066c-1.857,0-2.883,0.869-2.883,2.329c0,1.422,0.949,2.369,2.963,2.369c1.42,0,2.328-0.118,3.236-0.987
	c0.553-0.513,0.75-1.342,0.75-2.606V43.521z"/>
<path fill="#225B34" d="M304.134,52.444c-3.238,0-6.16-0.355-8.766-2.962l3.355-3.356c1.699,1.698,3.91,1.936,5.488,1.936
	c1.777,0,3.633-0.594,3.633-2.132c0-1.027-0.553-1.738-2.172-1.896l-3.238-0.315c-3.711-0.356-6-1.976-6-5.765
	c0-4.265,3.75-6.554,7.934-6.554c3.199,0,5.885,0.552,7.859,2.408l-3.158,3.198c-1.186-1.065-3.002-1.381-4.777-1.381
	c-2.055,0-2.924,0.947-2.924,1.974c0,0.751,0.316,1.618,2.135,1.775l3.234,0.318c4.068,0.394,6.121,2.565,6.121,6.04
	C312.858,50.273,308.989,52.444,304.134,52.444"/>
<path fill="#76BA27" d="M144.696,79.874h-5.409v10.58h-5.486V62.347h10.895c5.802,0,9.277,3.986,9.277,8.765
	C153.973,75.888,150.498,79.874,144.696,79.874 M144.42,67.242h-5.133v7.697h5.133c2.487,0,4.065-1.539,4.065-3.828
	S146.907,67.242,144.42,67.242"/>
<path fill="#76BA27" d="M171.226,88.165c-1.264,1.342-3.357,2.525-6.397,2.525c-3.038,0-5.091-1.184-6.355-2.525
	c-1.855-1.936-2.329-4.264-2.329-8.015c0-3.712,0.474-6.039,2.329-7.974c1.264-1.342,3.317-2.525,6.355-2.525
	c3.04,0,5.133,1.184,6.397,2.525c1.854,1.935,2.329,4.262,2.329,7.974C173.555,83.901,173.08,86.229,171.226,88.165 M167.238,75.177
	c-0.591-0.593-1.382-0.909-2.409-0.909c-1.024,0-1.775,0.316-2.367,0.909c-1.066,1.066-1.184,2.842-1.184,4.974
	c0,2.133,0.118,3.948,1.184,5.015c0.592,0.591,1.343,0.907,2.367,0.907c1.027,0,1.818-0.316,2.409-0.907
	c1.066-1.066,1.184-2.882,1.184-5.015C168.422,78.019,168.304,76.243,167.238,75.177"/>
<path fill="#76BA27" d="M188.835,75.492c-0.791-0.789-1.462-1.224-2.725-1.224c-1.58,0-3.316,1.184-3.316,3.79v12.395h-5.131V69.887
	h5.013v1.975c0.986-1.184,2.961-2.211,5.171-2.211c2.013,0,3.435,0.513,4.857,1.935L188.835,75.492z"/>
<path fill="#76BA27" d="M202.851,90.453c-4.184,0-5.962-2.96-5.962-5.882V74.388h-2.171v-3.908h2.171v-6.08h5.133v6.08h3.631v3.908
	h-3.631v9.869c0,1.184,0.552,1.854,1.776,1.854h1.854v4.342H202.851z"/>
<path fill="#76BA27" d="M222.156,90.453v-1.895c-1.342,1.422-3.236,2.133-5.133,2.133c-2.053,0-3.711-0.672-4.854-1.815
	c-1.658-1.659-2.094-3.594-2.094-5.845V69.887h5.134v12.436c0,2.803,1.774,3.749,3.395,3.749c1.618,0,3.433-0.946,3.433-3.749
	V69.887h5.134v20.566H222.156z"/>
<path fill="#76BA27" d="M240.042,98.23c-3.16,0-5.331-0.631-7.462-2.685l3.198-3.236c1.144,1.105,2.289,1.579,4.026,1.579
	c3.08,0,4.144-2.171,4.144-4.264v-2.092c-1.342,1.5-2.88,2.052-4.893,2.052c-2.014,0-3.751-0.671-4.896-1.815
	c-1.935-1.934-2.093-4.579-2.093-8.171c0-3.593,0.158-6.199,2.093-8.133c1.145-1.145,2.92-1.815,4.934-1.815
	c2.171,0,3.593,0.592,5.015,2.171v-1.935h4.973v19.817C249.082,94.639,245.569,98.23,240.042,98.23 M240.556,74.269
	c-3.04,0-3.355,2.605-3.355,5.33s0.315,5.369,3.355,5.369s3.393-2.645,3.393-5.369S243.596,74.269,240.556,74.269"/>
<path fill="#76BA27" d="M265.901,90.453v-1.895c-1.342,1.422-3.236,2.133-5.133,2.133c-2.053,0-3.711-0.672-4.855-1.815
	c-1.657-1.659-2.092-3.594-2.092-5.845V69.887h5.133v12.436c0,2.803,1.775,3.749,3.395,3.749s3.434-0.946,3.434-3.749V69.887h5.133
	v20.566H265.901z"/>
<path fill="#76BA27" d="M279.917,81.77c0,2.645,1.619,4.579,4.5,4.579c2.252,0,3.355-0.632,4.66-1.935l3.117,3.04
	c-2.09,2.093-4.105,3.236-7.814,3.236c-4.857,0-9.516-2.21-9.516-10.541c0-6.71,3.631-10.499,8.963-10.499
	c5.725,0,8.961,4.185,8.961,9.828v2.291H279.917z M287.261,76.046c-0.553-1.225-1.699-2.133-3.434-2.133
	c-1.738,0-2.883,0.908-3.436,2.133c-0.316,0.749-0.434,1.302-0.475,2.211h7.818C287.694,77.348,287.577,76.795,287.261,76.046"/>
<path fill="#76BA27" d="M304.278,90.691c-3.238,0-6.16-0.355-8.766-2.962l3.357-3.355c1.697,1.698,3.908,1.936,5.486,1.936
	c1.775,0,3.633-0.594,3.633-2.132c0-1.025-0.555-1.736-2.172-1.895l-3.238-0.316c-3.709-0.354-5.998-1.975-5.998-5.764
	c0-4.264,3.748-6.553,7.932-6.553c3.197,0,5.883,0.552,7.857,2.407l-3.158,3.197c-1.184-1.064-3.002-1.38-4.777-1.38
	c-2.053,0-2.922,0.946-2.922,1.974c0,0.751,0.316,1.617,2.135,1.774l3.234,0.318c4.066,0.393,6.119,2.563,6.119,6.039
	C313.001,88.521,309.132,90.691,304.278,90.691"/>
<path fill="#76BA27" d="M327.847,90.454v-1.776c-1.381,1.382-2.684,1.974-5.053,1.974c-2.33,0-4.027-0.592-5.252-1.815
	c-1.104-1.145-1.695-2.805-1.695-4.619c0-3.276,2.25-5.96,7.027-5.96h4.854v-1.027c0-2.25-1.104-3.236-3.828-3.236
	c-1.975,0-2.883,0.473-3.947,1.697l-3.277-3.197c2.014-2.212,3.988-2.843,7.422-2.843c5.762,0,8.764,2.447,8.764,7.265v13.539
	H327.847z M327.728,81.77h-4.064c-1.857,0-2.883,0.869-2.883,2.329c0,1.422,0.947,2.368,2.963,2.368c1.42,0,2.326-0.118,3.234-0.986
	c0.553-0.514,0.75-1.342,0.75-2.606V81.77z"/>
<path fill="#76BA27" d="M344.351,90.691c-3.236,0-6.158-0.355-8.764-2.962l3.355-3.355c1.697,1.698,3.908,1.936,5.486,1.936
	c1.777,0,3.633-0.594,3.633-2.132c0-1.025-0.553-1.736-2.172-1.895l-3.236-0.316c-3.711-0.354-6-1.975-6-5.764
	c0-4.264,3.75-6.553,7.934-6.553c3.197,0,5.881,0.552,7.857,2.407l-3.158,3.197c-1.184-1.064-3.002-1.38-4.777-1.38
	c-2.053,0-2.922,0.946-2.922,1.974c0,0.751,0.316,1.617,2.133,1.774l3.234,0.318c4.068,0.393,6.121,2.563,6.121,6.039
	C353.075,88.521,349.206,90.691,344.351,90.691"/>
</svg>
