<?xml version="1.0" encoding="utf-8"?>
<svg viewBox="0 0 353.075 119.875" xmlns="http://www.w3.org/2000/svg">
  <path fill="#225B34" d="M73.227,46.564V21.69H46.388v24.874H21.517v26.84h24.871v24.872h26.839V73.404H98.1v-26.84H73.227z M68.88,74.954c-2.662,1.633-5.783,2.59-9.135,2.59c-3.3,0-6.376-0.929-9.012-2.516c1.6-1.027,3.65-1.803,5.998-2.166 c0,0-0.016-12.495-0.016-16.814c-3.08,0.363-5.906,1.15-8.305,2.259c1.402-2.791,3.284-5.073,5.479-6.595 c-1.085-0.266-2.288-0.454-3.564-0.572c0.795-2.366,3.978-4.124,7.779-4.136c-0.004-0.055,0.002-0.114,0.002-0.17 c0-2.023,2.015-3.659,4.5-3.659c0.358,0,0.699,0.046,1.041,0.11c-0.717,0.869-1.141,2.045-1.141,3.343 c0,0.137,0.001,0.278,0.011,0.413c3.389,0.264,6.134,1.926,6.864,4.099c-1.276,0.118-2.479,0.306-3.564,0.572 c2.195,1.522,4.077,3.804,5.48,6.595c-2.401-1.109-5.225-1.942-8.304-2.306v16.858C65.284,73.213,67.294,73.962,68.88,74.954z" transform="matrix(0.9999999999999999, 0, 0, 0.9999999999999999, -7.105427357601002e-15, -3.552713678800501e-15)"/>
  <path fill="#225B34" d="M59.939,0C26.888,0,0,26.885,0,59.935c0,33.052,26.888,59.94,59.939,59.94 c33.05,0,59.938-26.888,59.938-59.94C119.877,26.885,92.989,0,59.939,0 M59.939,112.166c-28.8,0-52.23-23.431-52.23-52.231 c0-28.797,23.43-52.226,52.23-52.226c28.799,0,52.229,23.429,52.229,52.226C112.168,88.735,88.738,112.166,59.939,112.166" transform="matrix(0.9999999999999999, 0, 0, 0.9999999999999999, -7.105427357601002e-15, -3.552713678800501e-15)"/>
  <path fill="#225B34" d="M61.382,61.816c-0.058-0.122-0.051-0.101-0.206-0.312c-0.629-0.855-0.45-0.337-1.025-1.305 c-0.533-0.894-0.138-1.934-0.138-1.934l0.133-0.108l0.069-0.132l0.037-0.134l0.019-0.202l-0.017-0.17l-0.053-0.182l-0.077-0.176 l-0.071-0.127l-0.075-0.136l-0.09-0.156l-0.118-0.183l-0.087-0.129l-0.088-0.133l-0.089-0.096l-0.237-0.078h-0.091l-0.254,0.105 l-0.056,0.077l-0.056,0.13l-0.072,0.199l-0.073,0.182l-0.056,0.182l-0.035,0.146l-0.036,0.218l-0.037,0.2v0.348l0.018,0.147 l0.071,0.14l0.168,0.119c0,0-0.142,2.057,0.559,2.924c0.703,0.866,0.959,0.785,1.196,1.358c0.238,0.575,0.32,1.196,0.137,1.926 c-0.182,0.729-0.758,1.753-1.121,2.818c-0.365,1.067-0.713,2.5-0.42,3.284c0.292,0.784,0.73,1.516,1.122,1.88 c0.392,0.363,0.83,0.41,1.011,0.438c-0.546-0.521-0.491-0.778-0.729-1.196c-0.237-0.419-0.493-1.542-0.311-2.665 c0.184-1.12,1.124-3.118,1.124-3.118s1.017-2.096,0.436-3.339C61.498,62.052,61.427,61.909,61.382,61.816" transform="matrix(0.9999999999999999, 0, 0, 0.9999999999999999, -7.105427357601002e-15, -3.552713678800501e-15)"/>
  <text style="fill: rgb(41, 90, 46); font-family: Bahnschrift; font-size: 41px; font-weight: 700; letter-spacing: -0.4px; white-space: pre;" x="124.501" y="62.354" transform="matrix(0.9999999999999999, 0, 0, 0.9999999999999999, -7.105427357601002e-15, -3.552713678800501e-15)">Vacinação</text>
  <text style="fill: rgb(135, 183, 49); font-family: Bahnschrift; font-size: 33px; font-weight: 700; letter-spacing: -0.4px; white-space: pre;" x="126.025" y="91.23" transform="matrix(0.9999999999999999, 0, 0, 0.9999999999999999, -7.105427357601002e-15, -3.552713678800501e-15)">Alentejo</text>
</svg>